<svg width="1440" height="1393" viewBox="0 0 1440 1393" fill="none" xmlns="http://www.w3.org/2000/svg">
<g clip-path="url(#clip0_6_168)">
<rect width="1440" height="1393" fill="black"/>
<g clip-path="url(#clip1_6_168)">
<line x1="1040.84" y1="4.47721" x2="-375.316" y2="254.183" stroke="#3A0000" stroke-width="3"/>
<line x1="1040.84" y1="194.026" x2="-375.316" y2="443.732" stroke="#3A0000" stroke-width="3"/>
<line x1="1040.84" y1="383.575" x2="-375.316" y2="633.281" stroke="#3A0000" stroke-width="3"/>
<line x1="1040.84" y1="573.124" x2="-375.316" y2="822.83" stroke="#3A0000" stroke-width="3"/>
<line x1="1040.84" y1="762.673" x2="-375.316" y2="1012.38" stroke="#3A0000" stroke-width="3"/>
<line x1="1040.84" y1="952.222" x2="-375.316" y2="1201.93" stroke="#3A0000" stroke-width="3"/>
<line x1="1040.84" y1="1141.77" x2="-375.316" y2="1391.48" stroke="#3A0000" stroke-width="3"/>
</g>
<g clip-path="url(#clip2_6_168)">
<line x1="1811.82" y1="254.183" x2="395.663" y2="4.47719" stroke="#3A0000" stroke-width="3"/>
<line x1="1811.82" y1="443.732" x2="395.663" y2="194.026" stroke="#3A0000" stroke-width="3"/>
<line x1="1811.82" y1="633.281" x2="395.663" y2="383.575" stroke="#3A0000" stroke-width="3"/>
<line x1="1811.82" y1="822.83" x2="395.663" y2="573.124" stroke="#3A0000" stroke-width="3"/>
<line x1="1811.82" y1="1012.38" x2="395.663" y2="762.673" stroke="#3A0000" stroke-width="3"/>
<line x1="1811.82" y1="1201.93" x2="395.663" y2="952.222" stroke="#3A0000" stroke-width="3"/>
<line x1="1811.82" y1="1391.48" x2="395.663" y2="1141.77" stroke="#3A0000" stroke-width="3"/>
</g>
<line y1="-2.5" x2="1385" y2="-2.5" transform="matrix(-3.23415e-08 1 1 5.90785e-08 1440 0)" stroke="#3A0000" stroke-width="5"/>
<line y1="-2.5" x2="1385" y2="-2.5" transform="matrix(-9.75907e-09 1 1 1.95786e-07 1223.95 0)" stroke="#3A0000" stroke-width="5"/>
<line y1="-2.5" x2="1385" y2="-2.5" transform="matrix(-9.75907e-09 1 1 1.95786e-07 1067.64 0)" stroke="#3A0000" stroke-width="5"/>
<line y1="-2.5" x2="1385" y2="-2.5" transform="matrix(-9.75907e-09 1 1 1.95786e-07 963.535 0)" stroke="#3A0000" stroke-width="5"/>
<line y1="-2.5" x2="1385" y2="-2.5" transform="matrix(-9.75907e-09 1 1 1.95786e-07 894.132 0)" stroke="#3A0000" stroke-width="5"/>
<line y1="-2.5" x2="1385" y2="-2.5" transform="matrix(-9.75907e-09 1 1 1.95786e-07 847.964 0)" stroke="#3A0000" stroke-width="5"/>
<line y1="-2.5" x2="1385" y2="-2.5" transform="matrix(-9.75907e-09 1 1 1.95786e-07 817.186 0)" stroke="#3A0000" stroke-width="5"/>
<line y1="-2.5" x2="1385" y2="-2.5" transform="matrix(-9.75907e-09 1 1 1.95786e-07 796.666 0)" stroke="#3A0000" stroke-width="5"/>
<line y1="-2.5" x2="1385" y2="-2.5" transform="matrix(-9.75907e-09 1 1 1.95786e-07 783.088 0)" stroke="#3A0000" stroke-width="5"/>
<line y1="-2.5" x2="1385" y2="-2.5" transform="matrix(-9.75907e-09 1 1 1.95786e-07 774.035 0)" stroke="#3A0000" stroke-width="5"/>
<line y1="-2.5" x2="1385" y2="-2.5" transform="matrix(-9.75907e-09 1 1 1.95786e-07 768 0)" stroke="#3A0000" stroke-width="5"/>
<line x1="2.5" y1="-1.47696e-07" x2="2.50004" y2="1385" stroke="#3A0000" stroke-width="5"/>
<line x1="218.554" y1="-4.89464e-07" x2="218.554" y2="1385" stroke="#3A0000" stroke-width="5"/>
<line x1="374.861" y1="-4.89464e-07" x2="374.861" y2="1385" stroke="#3A0000" stroke-width="5"/>
<line x1="478.965" y1="-4.89464e-07" x2="478.965" y2="1385" stroke="#3A0000" stroke-width="5"/>
<line x1="548.368" y1="-4.89464e-07" x2="548.368" y2="1385" stroke="#3A0000" stroke-width="5"/>
<line x1="594.536" y1="-4.89464e-07" x2="594.536" y2="1385" stroke="#3A0000" stroke-width="5"/>
<line x1="625.314" y1="-4.89464e-07" x2="625.314" y2="1385" stroke="#3A0000" stroke-width="5"/>
<line x1="645.833" y1="-4.89464e-07" x2="645.833" y2="1385" stroke="#3A0000" stroke-width="5"/>
<line x1="659.412" y1="-4.89464e-07" x2="659.412" y2="1385" stroke="#3A0000" stroke-width="5"/>
<line x1="668.465" y1="-4.89464e-07" x2="668.465" y2="1385" stroke="#3A0000" stroke-width="5"/>
<line x1="674.5" y1="-4.89464e-07" x2="674.5" y2="1385" stroke="#3A0000" stroke-width="5"/>
</g>
<defs>
<clipPath id="clip0_6_168">
<rect width="1440" height="1393" fill="white"/>
</clipPath>
<clipPath id="clip1_6_168">
<rect width="1393" height="679" fill="white" transform="translate(672) rotate(90)"/>
</clipPath>
<clipPath id="clip2_6_168">
<rect width="1393" height="672" fill="white" transform="translate(1440) rotate(90)"/>
</clipPath>
</defs>
</svg>
